<?xml version="1.0" encoding="utf-8"?>
<!-- Generator: Adobe Illustrator 27.3.1, SVG Export Plug-In . SVG Version: 6.00 Build 0)  -->
<svg version="1.1" id="Layer_1" xmlns="http://www.w3.org/2000/svg" xmlns:xlink="http://www.w3.org/1999/xlink" x="0px" y="0px"
	 viewBox="0 0 1080 1080" style="enable-background:new 0 0 1080 1080;" xml:space="preserve">
<style type="text/css">
	.st0{fill-rule:evenodd;clip-rule:evenodd;}
	.st1{font-family:'Montserrat-Bold';}
	.st2{font-size:71.8818px;}
</style>
<g>
	<g>
		<path d="M131.67,540.11c-12.97-33.66-20.8-53.37-23.48-59.12c-0.88-1.8-1.83-2.71-2.87-2.71c-1.42,0-3.57,0.1-6.45,0.29
			c-2.87,0.19-5.05,0.29-6.53,0.29c-1.53,0-3.85-0.14-6.94-0.41c-3.09-0.27-5.38-0.41-6.85-0.41c-0.88,0-1.64,1.04-2.3,3.12
			c-1.04,3.27-7.1,19.9-18.17,49.91l0.57,0.03l1.04,0.05l2.27,0.11l3.3,0.16l7.5,0.36l0,6.91l-17.82,0.86
			c-0.18,0.48-0.36,0.97-0.54,1.46c-12.37,33.55-18.56,51.04-18.56,52.46c0,1.59,4.19,2.38,12.56,2.38c1.47,0,2.86-0.01,4.16-0.01
			v-4.53c0-2.51,2.04-4.54,4.54-4.54h4.62v-4.54c0-2.51,2.04-4.54,4.54-4.54h54.51c2.51,0,4.54,2.04,4.54,4.54v4.54h4.62
			c2.51,0,4.54,2.04,4.54,4.54v4.54c8.18-0.01,13.07-0.23,14.67-0.66c1.37-0.38,2.05-1.07,2.05-2.05
			C151.22,591.67,144.7,573.99,131.67,540.11z M75.05,540.36v-0.53c0-0.04,0-0.07,0-0.1v-8.98c0-0.04,0-0.08,0-0.12v-0.52
			c0-0.55,0.45-1,1-1l3.41,0v12.26h-3.41C75.5,541.36,75.05,540.91,75.05,540.36z M104.89,561.58c-0.63,0.62-1.45,0.97-2.33,0.97
			H82.51c-0.88,0-1.7-0.35-2.33-0.97c-0.63-0.63-0.97-1.45-0.97-2.33c0-0.88,0.35-1.7,0.97-2.33c0.63-0.62,1.45-0.97,2.33-0.97
			h20.04c0.88,0,1.7,0.35,2.33,0.97c0.63,0.63,0.97,1.45,0.97,2.33C105.85,560.13,105.51,560.96,104.89,561.58z M100.42,524.44
			l0.06,0l0.05,0c0.74,0.01,1.43,0.31,1.96,0.84c0.54,0.54,0.83,1.25,0.83,2v15.91c0,1.55-1.25,2.81-2.79,2.84l-0.05,0l-0.06,0
			l-9.08,0h-4.83c0,0,0,0,0,0h-1.87l-0.06,0l-0.04,0c-1.54-0.03-2.79-1.29-2.79-2.84v-15.91c0-1.55,1.25-2.81,2.79-2.84H100.42z
			 M85.72,522.16v-5.37h13.63v5.37H85.72z M99.35,548.31l0,5.37H85.72v-5.37H99.35z M102.56,514.52H82.52c-1.82,0-3.3-1.48-3.3-3.3
			c0.01-1.82,1.48-3.3,3.3-3.3h20.04c1.82,0,3.3,1.48,3.3,3.3C105.85,513.04,104.37,514.52,102.56,514.52z"/>
		<path class="st0" d="M148.08,601.96h-2.9l0-0.01C146.1,601.96,147.07,601.96,148.08,601.96z"/>
		<polygon points="29.26,587.6 33.79,584.06 20.61,569.34 		"/>
		<polygon points="25.54,590.59 28.43,588.33 20.01,578.92 		"/>
		<polygon points="34.76,582.45 37.65,580.19 29.23,570.79 		"/>
		<polygon points="159.4,589.87 154.87,586.34 168.05,571.62 		"/>
		<polygon points="163.12,592.87 160.23,590.61 168.65,581.2 		"/>
		<polygon points="153.9,584.73 151.01,582.47 159.43,573.06 		"/>
	</g>
	<g>
		<path d="M211.32,588.67c-12.98,0-23.13-3.61-30.45-10.85c-7.32-7.23-10.98-17.56-10.98-30.98v-51.23h21.17v50.45
			c0,8.72,1.78,14.99,5.36,18.82c3.57,3.83,8.58,5.75,15.03,5.75c6.45,0,11.46-1.92,15.03-5.75c3.57-3.84,5.36-10.11,5.36-18.82
			v-50.45h20.91v51.23c0,13.42-3.66,23.74-10.98,30.98C234.45,585.06,224.3,588.67,211.32,588.67z"/>
		<path d="M316.17,588.67c-7.06,0-13.61-1.16-19.67-3.46c-6.06-2.31-11.3-5.6-15.75-9.87c-4.44-4.27-7.91-9.28-10.39-15.03
			c-2.48-5.75-3.72-12.07-3.72-18.95s1.24-13.2,3.72-18.95c2.48-5.75,5.97-10.76,10.46-15.03c4.49-4.27,9.74-7.56,15.75-9.87
			c6.01-2.31,12.59-3.46,19.73-3.46c7.93,0,15.1,1.37,21.5,4.12c6.4,2.74,11.78,6.78,16.14,12.09l-13.59,12.55
			c-3.14-3.57-6.62-6.25-10.46-8.04c-3.84-1.78-8.02-2.68-12.55-2.68c-4.27,0-8.19,0.7-11.76,2.09c-3.57,1.39-6.67,3.4-9.28,6.01
			c-2.61,2.62-4.64,5.71-6.08,9.28c-1.44,3.57-2.16,7.54-2.16,11.89s0.72,8.32,2.16,11.89c1.44,3.58,3.46,6.66,6.08,9.28
			c2.61,2.61,5.71,4.62,9.28,6.01c3.57,1.39,7.49,2.09,11.76,2.09c4.53,0,8.71-0.89,12.55-2.68c3.83-1.78,7.32-4.51,10.46-8.17
			l13.59,12.55c-4.36,5.32-9.74,9.37-16.14,12.15C331.4,587.28,324.19,588.67,316.17,588.67z"/>
		<path d="M389.22,587.1v-74.23h-29.28v-17.25h79.72v17.25h-29.27v74.23H389.22z"/>
		<path d="M449.2,587.1v-91.48h21.17v91.48H449.2z"/>
		<path d="M535.64,588.67c-7.23,0-13.92-1.18-20.06-3.53c-6.14-2.35-11.46-5.66-15.94-9.93c-4.49-4.27-7.97-9.28-10.46-15.03
			c-2.48-5.75-3.72-12.02-3.72-18.82c0-6.8,1.24-13.07,3.72-18.82c2.48-5.75,5.99-10.76,10.52-15.03c4.53-4.27,9.84-7.58,15.94-9.93
			c6.1-2.35,12.72-3.53,19.87-3.53c7.23,0,13.87,1.18,19.93,3.53c6.05,2.35,11.32,5.67,15.81,9.93c4.49,4.27,7.99,9.26,10.52,14.96
			c2.53,5.71,3.79,12,3.79,18.89c0,6.79-1.26,13.09-3.79,18.88c-2.53,5.8-6.03,10.8-10.52,15.03c-4.49,4.23-9.76,7.52-15.81,9.87
			C549.38,587.49,542.79,588.67,535.64,588.67z M535.51,570.64c4.09,0,7.86-0.7,11.31-2.09c3.44-1.39,6.46-3.4,9.08-6.01
			c2.61-2.62,4.64-5.71,6.08-9.28c1.44-3.57,2.15-7.53,2.15-11.89s-0.72-8.32-2.15-11.89c-1.44-3.57-3.44-6.66-6.01-9.28
			c-2.57-2.61-5.6-4.62-9.08-6.01c-3.49-1.39-7.28-2.09-11.37-2.09c-4.1,0-7.86,0.7-11.3,2.09c-3.44,1.39-6.47,3.4-9.08,6.01
			c-2.61,2.62-4.64,5.71-6.08,9.28c-1.44,3.57-2.16,7.54-2.16,11.89c0,4.27,0.72,8.21,2.16,11.83c1.44,3.62,3.44,6.73,6.01,9.34
			c2.57,2.61,5.6,4.62,9.08,6.01C527.63,569.94,531.42,570.64,535.51,570.64z"/>
		<path d="M600.49,587.1v-91.48H618l53.98,65.87h-8.5v-65.87h20.91v91.48h-17.38l-54.11-65.87h8.49v65.87H600.49z"/>
		<path d="M743.07,587.1v-91.48h44.7c11.5,0,20.15,2.18,25.94,6.53c5.79,4.36,8.69,10.11,8.69,17.25c0,4.79-1.17,8.95-3.53,12.48
			c-2.35,3.53-5.58,6.25-9.67,8.17c-4.1,1.92-8.8,2.87-14.11,2.87l2.48-5.36c5.75,0,10.85,0.94,15.29,2.81
			c4.44,1.87,7.91,4.64,10.39,8.3c2.48,3.66,3.72,8.15,3.72,13.46c0,7.84-3.09,13.96-9.28,18.36c-6.19,4.4-15.29,6.6-27.32,6.6
			H743.07z M764.11,571.16h24.7c5.49,0,9.65-0.89,12.48-2.68c2.83-1.79,4.25-4.64,4.25-8.56c0-3.83-1.42-6.68-4.25-8.56
			c-2.83-1.87-6.99-2.81-12.48-2.81h-26.27v-15.42h22.61c5.14,0,9.08-0.89,11.83-2.68c2.75-1.79,4.12-4.51,4.12-8.17
			c0-3.57-1.37-6.25-4.12-8.04c-2.74-1.79-6.69-2.68-11.83-2.68h-21.04V571.16z"/>
		<path d="M842.65,587.1v-91.48h21.17v91.48H842.65z"/>
		<path d="M884.4,587.1v-91.48h41.56c9.93,0,18.69,1.9,26.27,5.69c7.58,3.79,13.5,9.08,17.77,15.88c4.27,6.79,6.4,14.86,6.4,24.18
			c0,9.23-2.14,17.27-6.4,24.11c-4.27,6.84-10.19,12.15-17.77,15.94c-7.58,3.79-16.34,5.69-26.27,5.69H884.4z M905.58,569.72h19.34
			c6.1,0,11.39-1.16,15.88-3.46c4.49-2.31,7.97-5.6,10.45-9.87c2.48-4.27,3.73-9.28,3.73-15.03c0-5.84-1.24-10.87-3.73-15.1
			c-2.48-4.22-5.97-7.49-10.45-9.8c-4.49-2.31-9.78-3.46-15.88-3.46h-19.34V569.72z"/>
		<path d="M1021.18,588.67c-7.32,0-14.34-0.98-21.04-2.94c-6.71-1.96-12.11-4.51-16.21-7.65l7.19-15.95
			c3.92,2.79,8.56,5.08,13.92,6.86c5.36,1.79,10.78,2.68,16.27,2.68c4.18,0,7.56-0.41,10.13-1.24c2.57-0.83,4.46-1.98,5.68-3.46
			c1.22-1.48,1.83-3.18,1.83-5.1c0-2.44-0.96-4.38-2.87-5.82c-1.92-1.44-4.45-2.61-7.58-3.53c-3.14-0.91-6.6-1.78-10.39-2.61
			c-3.79-0.83-7.58-1.85-11.37-3.07c-3.79-1.22-7.25-2.79-10.39-4.71c-3.14-1.91-5.69-4.44-7.65-7.58
			c-1.96-3.14-2.94-7.14-2.94-12.02c0-5.23,1.41-10,4.25-14.31c2.83-4.31,7.1-7.75,12.81-10.33c5.71-2.57,12.88-3.85,21.5-3.85
			c5.75,0,11.41,0.68,16.99,2.03c5.58,1.35,10.5,3.38,14.77,6.08l-6.53,16.08c-4.27-2.44-8.54-4.25-12.81-5.42
			c-4.27-1.18-8.45-1.77-12.55-1.77c-4.1,0-7.45,0.48-10.06,1.44c-2.61,0.96-4.49,2.2-5.62,3.72c-1.13,1.52-1.7,3.29-1.7,5.29
			c0,2.35,0.96,4.25,2.87,5.69c1.92,1.44,4.45,2.59,7.58,3.46c3.14,0.87,6.6,1.75,10.39,2.62c3.79,0.87,7.58,1.87,11.37,3
			c3.79,1.13,7.25,2.66,10.39,4.58c3.14,1.92,5.69,4.44,7.65,7.58c1.96,3.14,2.94,7.1,2.94,11.89c0,5.14-1.44,9.85-4.31,14.11
			c-2.87,4.27-7.17,7.71-12.87,10.33C1037.1,587.36,1029.89,588.67,1021.18,588.67z"/>
	</g>
</g>
<text transform="matrix(1 0 0 1 -518.3623 428.7137)" class="st1 st2">GB AUCTIONS</text>
</svg>
