<?xml version="1.0" encoding="utf-8"?>
<!-- Generator: Adobe Illustrator 27.3.1, SVG Export Plug-In . SVG Version: 6.00 Build 0)  -->
<svg version="1.1" id="Layer_1" xmlns="http://www.w3.org/2000/svg" xmlns:xlink="http://www.w3.org/1999/xlink" x="0px" y="0px"
	 viewBox="0 0 1080 1080" style="enable-background:new 0 0 1080 1080;" xml:space="preserve">
<style type="text/css">
	.st0{fill-rule:evenodd;clip-rule:evenodd;}
</style>
<g>
	<path d="M734.93,482.48C670.6,315.54,631.77,217.81,618.48,189.3c-4.34-8.95-9.1-13.43-14.25-13.43c-7.06,0-17.71,0.47-31.97,1.42
		c-14.25,0.96-25.05,1.43-32.36,1.43c-7.6,0-19.07-0.67-34.41-2.04s-26.68-2.04-34-2.04c-4.35,0-8.14,5.16-11.4,15.47
		c-5.16,16.2-35.2,98.71-90.1,247.53l2.83,0.13l5.14,0.24l11.28,0.54l16.38,0.8l37.2,1.79l0.01,34.29l-88.37,4.27
		c-0.89,2.4-1.78,4.83-2.68,7.25c-61.36,166.41-92.04,253.13-92.04,260.2c0,7.87,20.77,11.81,62.3,11.81
		c7.29,0,14.17-0.03,20.62-0.05v-22.47c0-12.43,10.12-22.52,22.52-22.52h22.93v-22.52c0-12.43,10.12-22.51,22.52-22.51h270.33
		c12.43,0,22.52,10.11,22.52,22.51v22.52h22.9c12.43,0,22.52,10.12,22.52,22.52v22.52c40.55-0.05,64.8-1.15,72.75-3.26
		c6.78-1.9,10.18-5.3,10.18-10.18C831.84,738.21,799.53,650.52,734.93,482.48z M454.09,483.73v-2.64c0.01-0.18,0.01-0.34,0-0.51
		v-44.52c0.01-0.19,0.01-0.39,0-0.58v-2.56c0-2.74,2.24-4.97,4.97-4.97l16.93-0.01v60.78h-16.93
		C456.33,488.7,454.09,486.46,454.09,483.73z M602.07,588.99c-3.1,3.09-7.2,4.8-11.55,4.8h-99.4c-4.34,0-8.44-1.71-11.54-4.8
		c-3.1-3.1-4.81-7.2-4.81-11.55c0-4.35,1.71-8.45,4.81-11.55c3.1-3.09,7.2-4.8,11.54-4.8h99.4c4.35,0,8.45,1.71,11.55,4.8
		c3.1,3.11,4.81,7.21,4.8,11.55C606.87,581.79,605.16,585.89,602.07,588.99z M579.92,404.8l0.31,0.01l0.24-0.01
		c3.65,0.07,7.09,1.54,9.71,4.15c2.67,2.67,4.14,6.2,4.14,9.93v78.91c-0.01,7.68-6.21,13.95-13.86,14.07l-0.23-0.01l-0.3,0.01
		l-45.05,0.01h-23.97c0,0,0,0-0.01-0.01h-9.27l-0.3-0.01l-0.22,0.01c-7.66-0.13-13.84-6.39-13.84-14.07v-78.91
		c0.01-7.7,6.19-13.95,13.84-14.09H579.92z M507,393.51v-26.64h67.61v26.64H507z M574.63,523.15l-0.01,26.64h-67.6v-26.64H574.63z
		 M590.52,355.6h-99.39c-9.02-0.01-16.36-7.35-16.36-16.36c0.03-9.02,7.36-16.35,16.36-16.36h99.39
		c9.02-0.01,16.35,7.33,16.35,16.36C606.87,348.26,599.52,355.6,590.52,355.6z"/>
	<path class="st0" d="M816.29,789.27h-14.37l-0.01-0.05C806.46,789.25,811.26,789.27,816.29,789.27z"/>
	<polygon points="227.01,718.01 249.47,700.49 184.11,627.45 	"/>
	<polygon points="208.55,732.85 222.9,721.66 181.14,675 	"/>
	<polygon points="254.28,692.49 268.63,681.3 226.88,634.64 	"/>
	<polygon points="872.43,729.31 849.97,711.79 915.32,638.76 	"/>
	<polygon points="890.89,744.15 876.54,732.96 918.29,686.3 	"/>
	<polygon points="845.15,703.8 830.8,692.6 872.56,645.94 	"/>
</g>
</svg>
