<?xml version="1.0" encoding="utf-8"?>
<!-- Generator: Adobe Illustrator 27.3.1, SVG Export Plug-In . SVG Version: 6.00 Build 0)  -->
<svg version="1.1" id="Layer_1" xmlns="http://www.w3.org/2000/svg" xmlns:xlink="http://www.w3.org/1999/xlink" x="0px" y="0px"
	 viewBox="0 0 1080 433" style="enable-background:new 0 0 1080 433;" xml:space="preserve">
<style type="text/css">
	.st0{fill-rule:evenodd;clip-rule:evenodd;fill:#3A54A5;}
	.st1{fill:#3A54A5;}
	.st2{fill-rule:evenodd;clip-rule:evenodd;fill:#FFFFFF;}
	.st3{fill:#FFFFFF;}
	.st4{fill-rule:evenodd;clip-rule:evenodd;fill:#010101;}
	.st5{fill:#010101;}
</style>
<g>
	<path class="st2" d="M945.6,268.9H246.8c-7.7,0-13.9-3.6-13.9-8c0-4.4,6.2-8,13.9-8h698.7c7.7,0,13.9,3.6,13.9,8
		C959.5,265.3,953.2,268.9,945.6,268.9z"/>
	<path class="st2" d="M911.9,225.2H770.5h0h0h-4c-5.1,0-9.3,4.2-9.3,9.3v9.3h168.2v-9.3c0-5.1-4.2-9.3-9.3-9.3H911.9z"/>
	<path class="st2" d="M897.2,195.7h-112c-5.1,0-9.3,4.2-9.3,9.3v9.3h130.6V205C906.5,199.8,902.3,195.7,897.2,195.7z"/>
	<g>
		<path class="st2" d="M369.1,136.4l-40.2,40.2l-5.2,5.2c-2.2,2.2-3.4,5.2-3.4,8.3c0,3.2,1.2,6.1,3.4,8.3c2.2,2.2,5.2,3.4,8.3,3.4
			s6.1-1.2,8.3-3.4l50.6-50.6c2.2-2.2,3.4-5.2,3.4-8.3s-1.2-6.1-3.4-8.3c-2.2-2.2-5.2-3.4-8.3-3.4c-3.2,0-6.1,1.2-8.3,3.4
			L369.1,136.4z"/>
		<polygon class="st2" points="346.9,120 320.1,146.8 312.5,154.4 326,168 360.4,133.6 		"/>
		<path class="st2" d="M251.1,113.1L251.1,113.1L251.1,113.1z M280.1,66.3l-30.6,30.6l-0.2,0.2l-0.1,0.1c-3.8,4-3.8,10.3,0.1,14.2
			l1.7,1.7l38.4,38.4c3.9,3.9,10.3,3.9,14.2,0.1l0.1-0.1l0.2-0.1l7.4-7.4l-24.2-24.2c-1.6-1.6-1.6-4.2,0-5.7c1.6-1.6,4.2-1.6,5.7,0
			l24.2,24.2l26.7-26.7l0.1-0.2l0.1-0.1c3.8-4,3.8-10.3-0.1-14.2l-40.2-40.2c-1.9-1.9-4.4-2.9-7.2-2.9c-2.7,0-5.2,1-7,2.8l-0.1,0.1
			l-0.2,0.2l-3.5,3.5l26.3,26.3c1.6,1.6,1.6,4.2,0,5.7c-0.8,0.8-1.8,1.2-2.9,1.2c-1,0-2.1-0.4-2.9-1.2L280.1,66.3z"/>
		<path class="st2" d="M239.6,130.4c-1.4,1.4-1.4,3.7,0,5.1l1.3,1.3c0.1,0.1,0.2,0.2,0.3,0.3l22.7,22.7c0.1,0.1,0.2,0.2,0.3,0.3
			l1.3,1.3c1.4,1.4,3.7,1.4,5.1,0l8.6-8.6l-30.9-30.9L239.6,130.4z"/>
		<path class="st2" d="M238.1,145.4l-28.6,26l9.3,9.3c1.6,1.6,1.6,4.2,0,5.7c-0.8,0.8-1.8,1.2-2.9,1.2c-1,0-2.1-0.4-2.9-1.2
			l-9.6-9.6l-57.2,52c-3.3,3-5.2,7.3-5.3,12c-0.1,5.1,1.9,10.1,5.5,13.8c3.6,3.6,8.6,5.6,13.8,5.5c4.7-0.1,9-2,12-5.3l26.4-29.1
			l-10.4-10.4c-1.6-1.6-1.6-4.2,0-5.7c1.6-1.6,4.2-1.6,5.7,0l10.1,10.1l51.5-56.8L238.1,145.4z"/>
		<path class="st2" d="M253,10l-50.6,50.6c-4.6,4.6-4.6,12.1,0,16.7c4.6,4.6,12.1,4.6,16.7,0l45.4-45.4l0,0l0,0l5.2-5.2
			c4.6-4.6,4.6-12.1,0-16.7C265.1,5.4,257.6,5.4,253,10z"/>
		
			<rect x="232.6" y="54.9" transform="matrix(0.7071 -0.7071 0.7071 0.7071 29.6719 200.5408)" class="st2" width="48.7" height="19.2"/>
	</g>
	<g>
		<path class="st3" d="M481.9,225.3c-9.2,0-17.7-1.5-25.5-4.4c-7.7-2.9-14.5-7.1-20.2-12.6c-5.7-5.5-10.2-11.9-13.4-19.2
			c-3.2-7.3-4.8-15.4-4.8-24.2c0-8.8,1.6-16.9,4.8-24.2c3.2-7.3,7.6-13.7,13.4-19.2c5.8-5.5,12.6-9.7,20.4-12.6s16.4-4.4,25.7-4.4
			c10.3,0,19.7,1.7,28,5.2c8.3,3.5,15.3,8.5,20.9,15l-17.4,16c-4.2-4.4-8.8-7.8-13.9-9.9c-5-2.2-10.5-3.3-16.4-3.3
			c-5.7,0-10.9,0.9-15.5,2.7c-4.7,1.8-8.7,4.3-12.1,7.7c-3.4,3.3-6,7.3-7.8,11.9c-1.8,4.6-2.8,9.6-2.8,15.2c0,5.5,0.9,10.5,2.8,15
			c1.8,4.6,4.4,8.5,7.8,11.9c3.4,3.4,7.4,6,12,7.8c4.6,1.8,9.7,2.7,15.3,2.7c5.3,0,10.5-0.9,15.6-2.6c5.1-1.7,10-4.6,14.8-8.8
			l15.4,19.5c-6.3,4.8-13.7,8.5-22.1,11C498.6,224,490.2,225.3,481.9,225.3z M504.4,206.9V163h24.7v47.4L504.4,206.9z"/>
		<path class="st3" d="M554.2,223.3V106.4h57.1c14.7,0,25.7,2.8,33.1,8.3c7.4,5.6,11.1,12.9,11.1,22c0,6.1-1.5,11.4-4.5,15.9
			s-7.1,8-12.4,10.4c-5.2,2.5-11.2,3.7-18,3.7l3.2-6.8c7.3,0,13.9,1.2,19.5,3.6c5.7,2.4,10.1,5.9,13.3,10.6
			c3.2,4.7,4.8,10.4,4.8,17.2c0,10-4,17.8-11.9,23.5c-7.9,5.6-19.5,8.4-34.9,8.4H554.2z M581,202.9h31.5c7,0,12.3-1.1,15.9-3.4
			c3.6-2.3,5.4-5.9,5.4-10.9c0-4.9-1.8-8.5-5.4-10.9c-3.6-2.4-8.9-3.6-15.9-3.6H579v-19.7h28.9c6.6,0,11.6-1.1,15.1-3.4
			c3.5-2.3,5.3-5.8,5.3-10.4c0-4.6-1.8-8-5.3-10.3c-3.5-2.3-8.5-3.4-15.1-3.4H581V202.9z"/>
	</g>
	<g>
		<path class="st3" d="M82.2,418.7l52.1-116.8H161l52.2,116.8h-28.4l-42.7-103.2h10.7l-42.9,103.2H82.2z M108.2,393.7l7.2-20.5h60.1
			l7.3,20.5H108.2z"/>
		<path class="st3" d="M274.8,420.7c-16.6,0-29.5-4.6-38.9-13.9c-9.3-9.2-14-22.4-14-39.6v-65.4h27v64.4c0,11.1,2.3,19.1,6.8,24
			c4.6,4.9,11,7.3,19.2,7.3c8.2,0,14.6-2.4,19.2-7.3c4.6-4.9,6.8-12.9,6.8-24v-64.4h26.7v65.4c0,17.1-4.7,30.3-14,39.6
			C304.4,416.1,291.4,420.7,274.8,420.7z"/>
		<path class="st3" d="M410.4,420.7c-9,0-17.4-1.5-25.1-4.4c-7.7-2.9-14.4-7.1-20.1-12.6c-5.7-5.5-10.1-11.9-13.3-19.2
			c-3.2-7.3-4.8-15.4-4.8-24.2c0-8.8,1.6-16.9,4.8-24.2c3.2-7.3,7.6-13.7,13.4-19.2c5.7-5.5,12.4-9.7,20.1-12.6s16.1-4.4,25.2-4.4
			c10.1,0,19.3,1.8,27.5,5.3c8.2,3.5,15,8.7,20.6,15.4l-17.4,16c-4-4.6-8.5-8-13.4-10.3c-4.9-2.3-10.2-3.4-16-3.4
			c-5.5,0-10.5,0.9-15,2.7s-8.5,4.3-11.9,7.7c-3.3,3.3-5.9,7.3-7.8,11.9c-1.8,4.6-2.8,9.6-2.8,15.2c0,5.6,0.9,10.6,2.8,15.2
			c1.8,4.6,4.4,8.5,7.8,11.9c3.3,3.3,7.3,5.9,11.9,7.7c4.6,1.8,9.6,2.7,15,2.7c5.8,0,11.1-1.1,16-3.4c4.9-2.3,9.3-5.8,13.4-10.4
			l17.4,16c-5.6,6.8-12.4,12-20.6,15.5C429.8,418.9,420.6,420.7,410.4,420.7z"/>
		<path class="st3" d="M499.8,418.7v-94.8h-37.4v-22h101.8v22h-37.4v94.8H499.8z"/>
		<path class="st3" d="M578.8,418.7V301.9h27v116.8H578.8z"/>
		<path class="st3" d="M690.3,420.7c-9.2,0-17.8-1.5-25.6-4.5c-7.8-3-14.6-7.2-20.4-12.7c-5.7-5.5-10.2-11.9-13.4-19.2
			c-3.2-7.3-4.8-15.4-4.8-24c0-8.7,1.6-16.7,4.8-24c3.2-7.3,7.6-13.7,13.4-19.2c5.8-5.5,12.6-9.7,20.4-12.7c7.8-3,16.2-4.5,25.4-4.5
			c9.2,0,17.7,1.5,25.5,4.5c7.7,3,14.5,7.2,20.2,12.7c5.7,5.4,10.2,11.8,13.4,19.1c3.2,7.3,4.8,15.3,4.8,24.1
			c0,8.7-1.6,16.7-4.8,24.1c-3.2,7.4-7.7,13.8-13.4,19.2c-5.7,5.4-12.5,9.6-20.2,12.6C707.8,419.2,699.4,420.7,690.3,420.7z
			 M690.1,397.7c5.2,0,10-0.9,14.4-2.7c4.4-1.8,8.3-4.3,11.6-7.7c3.3-3.3,5.9-7.3,7.8-11.9c1.8-4.6,2.8-9.6,2.8-15.2
			c0-5.6-0.9-10.6-2.8-15.2c-1.8-4.6-4.4-8.5-7.7-11.9c-3.3-3.3-7.2-5.9-11.6-7.7s-9.3-2.7-14.5-2.7c-5.2,0-10,0.9-14.4,2.7
			c-4.4,1.8-8.3,4.3-11.6,7.7c-3.3,3.3-5.9,7.3-7.8,11.9c-1.8,4.6-2.8,9.6-2.8,15.2c0,5.5,0.9,10.5,2.8,15.1
			c1.8,4.6,4.4,8.6,7.7,11.9c3.3,3.3,7.2,5.9,11.6,7.7C680,396.8,684.9,397.7,690.1,397.7z"/>
		<path class="st3" d="M774.4,418.7V301.9h22.4l68.9,84.1h-10.9v-84.1h26.7v116.8h-22.2l-69.1-84.1h10.9v84.1H774.4z"/>
		<path class="st3" d="M947.7,420.7c-9.3,0-18.3-1.3-26.9-3.8c-8.6-2.5-15.5-5.8-20.7-9.8l9.2-20.4c5,3.6,10.9,6.5,17.8,8.8
			c6.8,2.3,13.8,3.4,20.8,3.4c5.3,0,9.7-0.5,12.9-1.6c3.3-1.1,5.7-2.5,7.3-4.4c1.6-1.9,2.3-4.1,2.3-6.5c0-3.1-1.2-5.6-3.7-7.4
			c-2.5-1.8-5.7-3.3-9.7-4.5c-4-1.2-8.4-2.3-13.3-3.3c-4.8-1.1-9.7-2.4-14.5-3.9c-4.8-1.6-9.3-3.6-13.3-6c-4-2.4-7.3-5.7-9.8-9.7
			s-3.8-9.1-3.8-15.4c0-6.7,1.8-12.8,5.4-18.3c3.6-5.5,9.1-9.9,16.4-13.2c7.3-3.3,16.4-4.9,27.5-4.9c7.3,0,14.6,0.9,21.7,2.6
			c7.1,1.7,13.4,4.3,18.9,7.8l-8.3,20.5c-5.5-3.1-10.9-5.4-16.4-6.9c-5.5-1.5-10.8-2.3-16-2.3c-5.2,0-9.5,0.6-12.9,1.8
			c-3.3,1.2-5.7,2.8-7.2,4.8c-1.4,1.9-2.2,4.2-2.2,6.8c0,3,1.2,5.4,3.7,7.3c2.4,1.8,5.7,3.3,9.7,4.4c4,1.1,8.4,2.2,13.3,3.3
			c4.8,1.1,9.7,2.4,14.5,3.8c4.8,1.4,9.3,3.4,13.3,5.8c4,2.5,7.3,5.7,9.8,9.7c2.5,4,3.8,9.1,3.8,15.2c0,6.6-1.8,12.6-5.5,18
			c-3.7,5.5-9.2,9.8-16.4,13.2C968,419.1,958.8,420.7,947.7,420.7z"/>
	</g>
</g>
</svg>
